<?xml version="1.0" encoding="UTF-8"?>
<!--Generator: Apple Native CoreSVG 175-->
<!DOCTYPE svg
PUBLIC "-//W3C//DTD SVG 1.1//EN"
       "http://www.w3.org/Graphics/SVG/1.1/DTD/svg11.dtd">
<svg version="1.1" xmlns="http://www.w3.org/2000/svg" xmlns:xlink="http://www.w3.org/1999/xlink" width="17.9718" height="17.999">
 <g>
  <rect height="17.999" opacity="0" width="17.9718" x="0" y="0"/>
  <path d="M3.06409 17.999L14.9077 17.999Q16.4414 17.999 17.2066 17.2367Q17.9718 16.4743 17.9718 14.9655L17.9718 3.04829Q17.9718 1.53949 17.2066 0.778272Q16.4414 0.0170512 14.9077 0.0170512L3.06409 0.0170512Q1.54054 0.0170512 0.770268 0.777138Q0 1.53722 0 3.04829L0 14.9655Q0 16.4789 0.770268 17.239Q1.54054 17.999 3.06409 17.999ZM3.08902 16.4191Q2.35712 16.4191 1.96343 16.0356Q1.56975 15.6521 1.56975 14.8896L1.56975 3.12645Q1.56975 2.37417 1.96343 1.98558Q2.35712 1.59699 3.08902 1.59699L14.8828 1.59699Q15.6101 1.59699 16.0061 1.98558Q16.4021 2.37417 16.4021 3.12645L16.4021 14.8896Q16.4021 15.6521 16.0061 16.0356Q15.6101 16.4191 14.8828 16.4191ZM3.8661 9.8224L7.95924 9.82467Q8.26048 9.82467 8.26048 10.1361L8.26275 14.1817Q8.26275 14.6177 8.5057 14.7956Q8.74867 14.9734 9.04088 14.9003Q9.33309 14.8273 9.47694 14.5022L13.8123 5.26954Q13.9936 4.89237 13.8763 4.58881Q13.7591 4.28528 13.4505 4.16523Q13.1418 4.04518 12.759 4.22639L3.53991 8.60594Q3.2205 8.75433 3.14857 9.04654Q3.07667 9.33877 3.25561 9.58058Q3.43458 9.8224 3.8661 9.8224Z" fill="#007aff"/>
 </g>
</svg>
