<?xml version="1.0" encoding="UTF-8"?>
<!--Generator: Apple Native CoreSVG 175-->
<!DOCTYPE svg
PUBLIC "-//W3C//DTD SVG 1.1//EN"
       "http://www.w3.org/Graphics/SVG/1.1/DTD/svg11.dtd">
<svg version="1.1" xmlns="http://www.w3.org/2000/svg" xmlns:xlink="http://www.w3.org/1999/xlink" width="17.9718" height="17.999">
 <g>
  <rect height="17.999" opacity="0" width="17.9718" x="0" y="0"/>
  <path d="M3.06409 17.999L14.9077 17.999Q16.4414 17.999 17.2066 17.2367Q17.9718 16.4743 17.9718 14.9655L17.9718 3.04829Q17.9718 1.53949 17.2066 0.778272Q16.4414 0.0170512 14.9077 0.0170512L3.06409 0.0170512Q1.54054 0.0170512 0.770268 0.777138Q0 1.53722 0 3.04829L0 14.9655Q0 16.4789 0.770268 17.239Q1.54054 17.999 3.06409 17.999ZM3.08902 16.4191Q2.35712 16.4191 1.96343 16.0356Q1.56975 15.6521 1.56975 14.8896L1.56975 3.12645Q1.56975 2.37417 1.96343 1.98558Q2.35712 1.59699 3.08902 1.59699L14.8828 1.59699Q15.6101 1.59699 16.0061 1.98558Q16.4021 2.37417 16.4021 3.12645L16.4021 14.8896Q16.4021 15.6521 16.0061 16.0356Q15.6101 16.4191 14.8828 16.4191ZM6.65854 4.69878Q5.40905 4.69878 4.60759 5.53934Q3.80613 6.37987 3.80613 7.67238Q3.80613 8.44046 4.0967 9.1768Q4.3873 9.91316 4.88462 10.5929Q5.38194 11.2726 5.99423 11.8769Q6.60653 12.4813 7.26129 12.9842Q7.91605 13.4872 8.51641 13.87Q8.6444 13.9425 8.78654 14.0207Q8.92869 14.0988 9.02384 14.0988Q9.11444 14.0988 9.24243 14.0207Q9.37045 13.9425 9.48596 13.87Q10.0818 13.4804 10.7314 12.9751Q11.3811 12.4699 11.9985 11.8667Q12.6159 11.2635 13.1104 10.5849Q13.6049 9.90636 13.8966 9.1734Q14.1883 8.44046 14.1883 7.67238Q14.1883 6.37987 13.3869 5.53934Q12.5854 4.69878 11.3438 4.69878Q10.5611 4.69878 9.95954 5.10207Q9.35802 5.50536 9.0012 6.17484Q8.63643 5.50536 8.03887 5.10207Q7.44129 4.69878 6.65854 4.69878Z" fill="#ff2d55"/>
 </g>
</svg>
